<svg width="166" height="16" viewBox="0 0 166 16" xmlns="http://www.w3.org/2000/svg" xmlns:sketch="http://www.bohemiancoding.com/sketch/ns"><title>logo + Settings 2 + Settings</title><desc>Created with Sketch.</desc><g sketch:type="MSLayerGroup" fill="none"><g sketch:type="MSShapeGroup"><path d="M70.3 0h-6.2c-.6 0-1.1.2-1.5.6-.4.4-.6.9-.6 1.5v8.8c0 .6.2 1.1.6 1.5.4.4.9.6 1.5.6h6.2c.6 0 1.1-.2 1.5-.6.4-.4.6-.9.6-1.5v-.6h-7.7v-7.6h7.7v-.6c0-.6-.2-1.1-.6-1.5-.4-.4-.9-.6-1.5-.6zm11.7 0h-6.2c-.6 0-1.1.2-1.5.6-.4.4-.6.9-.6 1.5v.6h7.8v2.5h-5.6c-.6 0-1.1.2-1.5.6-.4.4-.6.9-.6 1.5v3.6c0 .6.2 1.1.6 1.5.4.4.9.6 1.5.6h6.1c.6 0 1.1-.2 1.5-.6.4-.4.6-.9.6-1.5v-8.8c0-.6-.2-1.1-.6-1.5-.4-.4-.9-.6-1.5-.6zm-.6 10.3h-5v-2.5h5v2.5zm9.2 0h-2.6v-8.2c0-.6-.2-1.1-.6-1.5-.4-.4-.9-.6-1.5-.6h-.6v10.9c0 .6.2 1.1.6 1.5.4.4.9.6 1.5.6h3.6c.6 0 1.1-.2 1.5-.6.4-.4.6-.9.6-1.5v-.6h-2.5zm12.2-2.5c.6 0 1.1-.2 1.5-.6.4-.4.6-.9.6-1.5v-3.6c0-.6-.2-1.1-.6-1.5-.4-.4-.9-.6-1.5-.6h-6.2c-.6 0-1.1.2-1.5.6-.4.4-.6.9-.6 1.5v8.8c0 .6.2 1.1.6 1.5.4.4.9.6 1.5.6h6.2c.6 0 1.1-.2 1.5-.6.4-.4.6-.9.6-1.5v-.6h-7.8v-2.5h5.7zm-5.7-5.1h5v2.5h-5v-2.5zm-38.4-2.7h-6.2c-.6 0-1.1.2-1.5.6-.4.4-.6.9-.6 1.5v3.6c0 .6.2 1.1.6 1.5.4.4.9.6 1.5.6h5.6v2.5h-7.7v.6c0 .6.2 1.1.6 1.5.4.4.9.6 1.5.6h6.2c.6 0 1.1-.2 1.5-.6.4-.4.6-.9.6-1.5v-3.6c0-.6-.2-1.1-.6-1.5-.4-.4-.9-.6-1.5-.6h-5.6v-2.5h7.8v-.6c0-.6-.2-1.1-.6-1.5-.5-.4-1.1-.6-1.6-.6zm-50.4 0h-8.3v13h2.7v-2.6h5v.5c0 .6.2 1.1.6 1.5.5.4 1 .6 1.5.6h.6v-3.1c0-.6-.2-1.1-.6-1.5-.3-.3-.6-.5-1-.6.4-.1.7-.3 1-.6.4-.4.6-.9.6-1.5v-3.6c0-.6-.2-1.1-.6-1.5-.4-.4-.9-.6-1.5-.6zm-.6 7.7h-5v-5h5v5zm4.5-4.6h-.6v9.9h2.7v-7.7c0-.6-.2-1.1-.6-1.5-.4-.5-.9-.7-1.5-.7zm4-2.5c-.4.4-.6.9-.6 1.5v8.8c0 .6.2 1.1.6 1.5.4.4.9.6 1.5.6h6.2c.6 0 1.1-.2 1.5-.6.4-.4.6-.9.6-1.5v-5.7h-2.7v5.2h-5v-7.7h7.7v-2.7h-8.3c-.6 0-1.1.2-1.5.6zm18.8 4.6h-5v-5.2h-2.7v13h2.7v-5.2h5v5.2h2.7v-13h-2.7v5.2zm3.9-5.2v2.7h2.6v10.3h.6c.6 0 1.1-.2 1.5-.6.4-.4.6-.9.6-1.5v-8.2h2.6v-2.7h-7.9z" id="Shape" opacity=".25" fill="#000"/><path d="M70.3 1h-6.2c-.6 0-1.1.2-1.5.6-.4.4-.6.9-.6 1.5v8.8c0 .6.2 1.1.6 1.5.4.4.9.6 1.5.6h6.2c.6 0 1.1-.2 1.5-.6.4-.4.6-.9.6-1.5v-.6h-7.7v-7.6h7.7v-.6c0-.6-.2-1.1-.6-1.5-.4-.4-.9-.6-1.5-.6zm11.7 0h-6.2c-.6 0-1.1.2-1.5.6-.4.4-.6.9-.6 1.5v.6h7.8v2.5h-5.6c-.6 0-1.1.2-1.5.6-.4.4-.6.9-.6 1.5v3.6c0 .6.2 1.1.6 1.5.4.4.9.6 1.5.6h6.1c.6 0 1.1-.2 1.5-.6.4-.4.6-.9.6-1.5v-8.8c0-.6-.2-1.1-.6-1.5-.4-.4-.9-.6-1.5-.6zm-.6 10.3h-5v-2.5h5v2.5zm9.2 0h-2.6v-8.2c0-.6-.2-1.1-.6-1.5-.4-.4-.9-.6-1.5-.6h-.6v10.9c0 .6.2 1.1.6 1.5.4.4.9.6 1.5.6h3.6c.6 0 1.1-.2 1.5-.6.4-.4.6-.9.6-1.5v-.6h-2.5zm12.2-2.5c.6 0 1.1-.2 1.5-.6.4-.4.6-.9.6-1.5v-3.6c0-.6-.2-1.1-.6-1.5-.4-.4-.9-.6-1.5-.6h-6.2c-.6 0-1.1.2-1.5.6-.4.4-.6.9-.6 1.5v8.8c0 .6.2 1.1.6 1.5.4.4.9.6 1.5.6h6.2c.6 0 1.1-.2 1.5-.6.4-.4.6-.9.6-1.5v-.6h-7.8v-2.5h5.7zm-5.7-5.1h5v2.5h-5v-2.5zm-38.4-2.7h-6.2c-.6 0-1.1.2-1.5.6-.4.4-.6.9-.6 1.5v3.6c0 .6.2 1.1.6 1.5.4.4.9.6 1.5.6h5.6v2.5h-7.7v.6c0 .6.2 1.1.6 1.5.4.4.9.6 1.5.6h6.2c.6 0 1.1-.2 1.5-.6.4-.4.6-.9.6-1.5v-3.6c0-.6-.2-1.1-.6-1.5-.4-.4-.9-.6-1.5-.6h-5.6v-2.5h7.8v-.6c0-.6-.2-1.1-.6-1.5-.5-.4-1.1-.6-1.6-.6zm-50.4 0h-8.3v13h2.7v-2.6h5v.5c0 .6.2 1.1.6 1.5.5.4 1 .6 1.5.6h.6v-3.1c0-.6-.2-1.1-.6-1.5-.3-.3-.6-.5-1-.6.4-.1.7-.3 1-.6.4-.4.6-.9.6-1.5v-3.6c0-.6-.2-1.1-.6-1.5-.4-.4-.9-.6-1.5-.6zm-.6 7.7h-5v-5h5v5zm4.5-4.6h-.6v9.9h2.7v-7.7c0-.6-.2-1.1-.6-1.5-.4-.5-.9-.7-1.5-.7zm4-2.5c-.4.4-.6.9-.6 1.5v8.8c0 .6.2 1.1.6 1.5.4.4.9.6 1.5.6h6.2c.6 0 1.1-.2 1.5-.6.4-.4.6-.9.6-1.5v-5.7h-2.7v5.2h-5v-7.7h7.7v-2.7h-8.3c-.6 0-1.1.2-1.5.6zm18.8 4.6h-5v-5.2h-2.7v13h2.7v-5.2h5v5.2h2.7v-13h-2.7v5.2zm3.9-5.2v2.7h2.6v10.3h.6c.6 0 1.1-.2 1.5-.6.4-.4.6-.9.6-1.5v-8.2h2.6v-2.7h-7.9z" id="Shape" fill="#fff"/><path d="M11.7.6c0 .6.2 1.1.6 1.5.4.4.9.6 1.5.6h.6v-2.7h-2.7v.6z" id="Shape" opacity=".25" fill="#000"/><path d="M11.7 1.6c0 .6.2 1.1.6 1.5.4.4.9.6 1.5.6h.6v-2.7h-2.7v.6z" fill="#F3A02D"/></g><path d="M118.365 3.425h1.35c-.02-.59-.132-1.097-.338-1.522-.205-.425-.485-.777-.84-1.058-.355-.28-.767-.485-1.237-.615-.47-.13-.98-.195-1.53-.195-.49 0-.967.062-1.432.188-.465.125-.88.315-1.245.57-.365.255-.657.58-.877.975-.22.395-.33.862-.33 1.402 0 .49.097.897.292 1.223.195.325.455.59.78.795.325.205.692.37 1.103.495.41.125.827.235 1.252.33l1.252.277c.41.09.777.207 1.103.353.325.145.585.332.78.563.195.23.292.53.292.9 0 .39-.08.71-.24.96-.16.25-.37.447-.63.593-.26.145-.552.247-.877.307-.325.06-.647.09-.968.09-.4 0-.79-.05-1.17-.15-.38-.1-.712-.255-.998-.465-.285-.21-.515-.477-.69-.803-.175-.325-.263-.712-.263-1.162h-1.35c0 .65.117 1.212.352 1.688.235.475.555.865.96 1.17.405.305.875.532 1.41.683.535.15 1.102.225 1.703.225.49 0 .982-.057 1.477-.172.495-.115.942-.3 1.343-.555.4-.255.727-.585.983-.99.255-.405.383-.892.383-1.463 0-.53-.097-.97-.293-1.32-.195-.35-.455-.64-.78-.87-.325-.23-.692-.412-1.103-.548-.41-.135-.827-.252-1.252-.353-.425-.1-.842-.192-1.252-.277-.41-.085-.777-.192-1.103-.322-.325-.13-.585-.297-.78-.502-.195-.205-.293-.472-.293-.803 0-.35.067-.642.203-.877.135-.235.315-.422.54-.563.225-.14.482-.24.773-.3.29-.06.585-.09.885-.09.74 0 1.347.172 1.823.517.475.345.752.902.832 1.672zm9.93 5.115h-1.26c-.11.51-.337.89-.682 1.14-.345.25-.787.375-1.328.375-.42 0-.785-.07-1.095-.21-.31-.14-.565-.327-.765-.563-.2-.235-.345-.505-.435-.81-.09-.305-.13-.627-.12-.968h5.805c.02-.47-.022-.965-.127-1.485-.105-.52-.295-1-.57-1.44-.275-.44-.64-.802-1.095-1.087-.455-.285-1.027-.428-1.718-.428-.53 0-1.017.1-1.463.3-.445.2-.83.48-1.155.84-.325.36-.577.785-.757 1.275-.18.49-.27 1.03-.27 1.62.02.59.107 1.135.262 1.635.155.5.387.93.698 1.29.31.36.692.64 1.148.84.455.2.992.3 1.612.3.88 0 1.61-.22 2.19-.66.58-.44.955-1.095 1.125-1.965zm-1.23-2.16h-4.455c.02-.3.085-.582.195-.848.11-.265.26-.497.45-.697.19-.2.417-.357.683-.473.265-.115.562-.172.892-.172.32 0 .612.057.877.172.265.115.495.27.69.465.195.195.35.427.465.698.115.27.183.555.203.855zm4.44-3.135v-2.325h-1.275v2.325h-1.32v1.125h1.32v4.935c0 .36.035.65.105.87.07.22.177.39.322.51.145.12.335.202.57.247.235.045.517.068.847.068h.975v-1.125h-.585c-.2 0-.362-.007-.488-.023-.125-.015-.222-.047-.292-.097-.07-.05-.118-.12-.143-.21-.025-.09-.037-.21-.037-.36v-4.815h1.545v-1.125h-1.545zm4.725 0v-2.325h-1.275v2.325h-1.32v1.125h1.32v4.935c0 .36.035.65.105.87.07.22.177.39.322.51.145.12.335.202.57.247.235.045.517.068.848.068h.975v-1.125h-.585c-.2 0-.362-.007-.488-.023-.125-.015-.222-.047-.292-.097-.07-.05-.118-.12-.142-.21-.025-.09-.038-.21-.038-.36v-4.815h1.545v-1.125h-1.545zm4.305-1.395v-1.56h-1.275v1.56h1.275zm-1.275 1.395v7.755h1.275v-7.755h-1.275zm3.255 0v7.755h1.275v-4.38c0-.35.048-.672.143-.968.095-.295.237-.552.428-.772.19-.22.427-.39.712-.51s.622-.18 1.013-.18c.49 0 .875.14 1.155.42.28.28.42.66.42 1.14v5.25h1.275v-5.1c0-.42-.042-.802-.127-1.147-.085-.345-.232-.642-.442-.893-.21-.25-.485-.445-.825-.585-.34-.14-.765-.21-1.275-.21-1.15 0-1.99.47-2.52 1.41h-.03v-1.23h-1.2zm15.03 7.095v-7.095h-1.2v1.11h-.015c-.23-.43-.55-.752-.96-.968-.41-.215-.86-.323-1.35-.323-.67 0-1.235.127-1.695.382-.46.255-.83.58-1.11.975-.28.395-.48.835-.6 1.32-.12.485-.18.957-.18 1.418 0 .53.072 1.032.218 1.508.145.475.362.89.653 1.245.29.355.65.637 1.08.848.43.21.935.315 1.515.315.5 0 .972-.112 1.417-.337.445-.225.777-.577.998-1.058h.03v.51c0 .43-.042.825-.127 1.185-.085.36-.222.667-.412.922-.19.255-.43.455-.72.6-.29.145-.645.217-1.065.217-.21 0-.43-.022-.66-.068-.23-.045-.442-.117-.638-.217-.195-.1-.36-.23-.495-.39s-.207-.355-.218-.585h-1.275c.02.42.13.775.33 1.065.2.29.452.525.757.705.305.18.645.31 1.02.39.375.08.742.12 1.102.12 1.24 0 2.15-.315 2.73-.945.58-.63.87-1.58.87-2.85zm-3.57-.375c-.42 0-.77-.087-1.05-.262-.28-.175-.505-.405-.675-.69-.17-.285-.29-.602-.36-.952s-.105-.7-.105-1.05c0-.37.042-.725.127-1.065.085-.34.22-.64.405-.9.185-.26.422-.467.713-.622.29-.155.64-.232 1.05-.232.4 0 .74.08 1.02.24.28.16.507.372.683.638.175.265.303.562.382.893.08.33.12.665.12 1.005 0 .36-.042.72-.127 1.08-.085.36-.217.682-.398.967-.18.285-.417.515-.712.69-.295.175-.652.262-1.073.262zm6.27-1.41h-1.275c.02.48.12.887.3 1.223.18.335.42.605.72.81.3.205.645.352 1.035.442.39.09.8.135 1.23.135.39 0 .782-.037 1.178-.112.395-.075.75-.207 1.065-.398.315-.19.57-.44.765-.75.195-.31.293-.7.293-1.17 0-.37-.072-.68-.218-.93-.145-.25-.335-.457-.57-.622-.235-.165-.505-.297-.81-.397-.305-.1-.617-.185-.938-.255l-.9-.203c-.3-.065-.57-.145-.81-.24-.24-.095-.437-.215-.593-.36-.155-.145-.232-.327-.232-.548 0-.2.05-.362.15-.487.1-.125.23-.225.39-.3.16-.075.337-.127.532-.157s.387-.045.577-.045c.21 0 .417.022.623.067.205.045.392.117.563.217.17.1.31.232.42.397.11.165.175.372.195.623h1.275c-.03-.47-.13-.862-.3-1.178-.17-.315-.397-.565-.683-.75-.285-.185-.612-.315-.982-.39-.37-.075-.775-.113-1.215-.113-.34 0-.682.042-1.028.127-.345.085-.655.215-.93.39-.275.175-.5.402-.675.682-.175.28-.263.615-.263 1.005 0 .5.125.89.375 1.17.25.28.562.497.938.652.375.155.782.275 1.222.36.44.085.847.18 1.223.285.375.105.687.242.938.413.25.17.375.42.375.75 0 .24-.06.437-.18.592-.12.155-.272.272-.458.353-.185.08-.387.135-.607.165-.22.03-.43.045-.63.045-.26 0-.512-.025-.758-.075-.245-.05-.465-.132-.66-.248-.195-.115-.352-.27-.472-.465s-.185-.432-.195-.713z" opacity=".25" fill="#000" sketch:type="MSShapeGroup"/><path d="M118.365 4.425h1.35c-.02-.59-.132-1.097-.338-1.522-.205-.425-.485-.777-.84-1.057-.355-.28-.767-.485-1.237-.615-.47-.13-.98-.195-1.53-.195-.49 0-.967.062-1.432.188-.465.125-.88.315-1.245.57-.365.255-.657.58-.877.975-.22.395-.33.862-.33 1.402 0 .49.097.897.292 1.223.195.325.455.59.78.795.325.205.692.37 1.103.495.41.125.827.235 1.252.33l1.252.277c.41.09.777.207 1.103.353.325.145.585.332.78.563.195.23.292.53.292.9 0 .39-.08.71-.24.96-.16.25-.37.447-.63.593-.26.145-.552.247-.877.307-.325.06-.647.09-.968.09-.4 0-.79-.05-1.17-.15-.38-.1-.712-.255-.998-.465-.285-.21-.515-.477-.69-.803-.175-.325-.263-.712-.263-1.162h-1.35c0 .65.117 1.212.352 1.688.235.475.555.865.96 1.17.405.305.875.532 1.41.683.535.15 1.102.225 1.703.225.49 0 .982-.057 1.477-.172.495-.115.942-.3 1.343-.555.4-.255.727-.585.983-.99.255-.405.383-.892.383-1.463 0-.53-.097-.97-.293-1.32-.195-.35-.455-.64-.78-.87-.325-.23-.692-.412-1.103-.548-.41-.135-.827-.252-1.252-.353-.425-.1-.842-.192-1.252-.277-.41-.085-.777-.192-1.103-.322-.325-.13-.585-.297-.78-.503-.195-.205-.293-.472-.293-.802 0-.35.067-.642.203-.878.135-.235.315-.422.54-.563.225-.14.482-.24.773-.3.29-.06.585-.09.885-.09.74 0 1.347.172 1.823.518.475.345.752.902.832 1.672zm9.93 5.115h-1.26c-.11.51-.337.89-.682 1.14-.345.25-.787.375-1.328.375-.42 0-.785-.07-1.095-.21-.31-.14-.565-.327-.765-.563-.2-.235-.345-.505-.435-.81-.09-.305-.13-.627-.12-.967h5.805c.02-.47-.022-.965-.127-1.485-.105-.52-.295-1-.57-1.44-.275-.44-.64-.802-1.095-1.088-.455-.285-1.027-.427-1.718-.427-.53 0-1.017.1-1.463.3-.445.2-.83.48-1.155.84-.325.36-.577.785-.757 1.275-.18.49-.27 1.03-.27 1.62.02.59.107 1.135.262 1.635.155.5.387.93.698 1.29.31.36.692.64 1.148.84.455.2.992.3 1.612.3.88 0 1.61-.22 2.19-.66.58-.44.955-1.095 1.125-1.965zm-1.23-2.16h-4.455c.02-.3.085-.582.195-.848.11-.265.26-.497.45-.697.19-.2.417-.357.683-.473.265-.115.562-.172.892-.172.32 0 .612.057.877.172.265.115.495.27.69.465.195.195.35.427.465.698.115.27.183.555.203.855zm4.44-3.135v-2.325h-1.275v2.325h-1.32v1.125h1.32v4.935c0 .36.035.65.105.87.07.22.177.39.322.51.145.12.335.202.57.247.235.045.517.068.847.068h.975v-1.125h-.585c-.2 0-.362-.007-.488-.023-.125-.015-.222-.047-.292-.097-.07-.05-.118-.12-.143-.21-.025-.09-.037-.21-.037-.36v-4.815h1.545v-1.125h-1.545zm4.725 0v-2.325h-1.275v2.325h-1.32v1.125h1.32v4.935c0 .36.035.65.105.87.07.22.177.39.322.51.145.12.335.202.57.247.235.045.517.068.848.068h.975v-1.125h-.585c-.2 0-.362-.007-.488-.023-.125-.015-.222-.047-.292-.097-.07-.05-.118-.12-.142-.21-.025-.09-.038-.21-.038-.36v-4.815h1.545v-1.125h-1.545zm4.305-1.395v-1.56h-1.275v1.56h1.275zm-1.275 1.395v7.755h1.275v-7.755h-1.275zm3.255 0v7.755h1.275v-4.38c0-.35.048-.672.143-.968.095-.295.237-.552.428-.772.19-.22.427-.39.712-.51s.622-.18 1.013-.18c.49 0 .875.14 1.155.42.28.28.42.66.42 1.14v5.25h1.275v-5.1c0-.42-.042-.802-.127-1.147-.085-.345-.232-.642-.442-.893-.21-.25-.485-.445-.825-.585-.34-.14-.765-.21-1.275-.21-1.15 0-1.99.47-2.52 1.41h-.03v-1.23h-1.2zm15.03 7.095v-7.095h-1.2v1.11h-.015c-.23-.43-.55-.752-.96-.968-.41-.215-.86-.322-1.35-.322-.67 0-1.235.127-1.695.382-.46.255-.83.58-1.11.975-.28.395-.48.835-.6 1.32-.12.485-.18.957-.18 1.418 0 .53.072 1.032.218 1.508.145.475.362.89.653 1.245.29.355.65.637 1.08.848.43.21.935.315 1.515.315.5 0 .972-.112 1.417-.337.445-.225.777-.577.998-1.058h.03v.51c0 .43-.042.825-.127 1.185-.085.36-.222.667-.412.922-.19.255-.43.455-.72.6-.29.145-.645.217-1.065.217-.21 0-.43-.022-.66-.068-.23-.045-.442-.117-.638-.217-.195-.1-.36-.23-.495-.39s-.207-.355-.218-.585h-1.275c.02.42.13.775.33 1.065.2.29.452.525.757.705.305.18.645.31 1.02.39.375.08.742.12 1.102.12 1.24 0 2.15-.315 2.73-.945.58-.63.87-1.58.87-2.85zm-3.57-.375c-.42 0-.77-.087-1.05-.262-.28-.175-.505-.405-.675-.69-.17-.285-.29-.602-.36-.952s-.105-.7-.105-1.05c0-.37.042-.725.127-1.065.085-.34.22-.64.405-.9.185-.26.422-.467.713-.622.29-.155.64-.232 1.05-.232.4 0 .74.08 1.02.24.28.16.507.372.683.638.175.265.303.562.382.893.08.33.12.665.12 1.005 0 .36-.042.72-.127 1.08-.085.36-.217.682-.398.967-.18.285-.417.515-.712.69-.295.175-.652.262-1.073.262zm6.27-1.41h-1.275c.02.48.12.887.3 1.223.18.335.42.605.72.81.3.205.645.352 1.035.442.39.09.8.135 1.23.135.39 0 .782-.037 1.178-.112.395-.075.75-.207 1.065-.398.315-.19.57-.44.765-.75.195-.31.293-.7.293-1.17 0-.37-.072-.68-.218-.93-.145-.25-.335-.457-.57-.623-.235-.165-.505-.297-.81-.397-.305-.1-.617-.185-.938-.255l-.9-.203c-.3-.065-.57-.145-.81-.24-.24-.095-.437-.215-.593-.36-.155-.145-.232-.327-.232-.548 0-.2.05-.362.15-.487.1-.125.23-.225.39-.3.16-.075.337-.127.532-.157s.387-.045.577-.045c.21 0 .417.022.623.067.205.045.392.117.563.217.17.1.31.232.42.397.11.165.175.372.195.623h1.275c-.03-.47-.13-.862-.3-1.178-.17-.315-.397-.565-.683-.75-.285-.185-.612-.315-.982-.39-.37-.075-.775-.112-1.215-.112-.34 0-.682.042-1.028.127-.345.085-.655.215-.93.39-.275.175-.5.402-.675.683-.175.28-.263.615-.263 1.005 0 .5.125.89.375 1.17.25.28.562.497.938.652.375.155.782.275 1.222.36.44.085.847.18 1.223.285.375.105.687.242.938.412.25.17.375.42.375.75 0 .24-.06.437-.18.592-.12.155-.272.272-.458.353-.185.08-.387.135-.607.165-.22.03-.43.045-.63.045-.26 0-.512-.025-.758-.075-.245-.05-.465-.132-.66-.248-.195-.115-.352-.27-.472-.465s-.185-.432-.195-.713z" fill="#fff" sketch:type="MSShapeGroup"/></g></svg>