<svg xmlns="http://www.w3.org/2000/svg" width="16" height="112" viewBox="0 0 16 112"><path d="M143 30h31v106h-31z"/><path fill="#fff" d="M8 18c-3 0-5.8 2.2-8 6 2.2 3.8 5 6 8 6s5.8-2.2 8-6c-2.2-3.8-5-6-8-6zm0 10c-2.2 0-4-1.8-4-4s1.8-4 4-4h.5c-.3.4-.5.9-.5 1.5 0 1.4 1.1 2.5 2.5 2.5.5 0 1.1-.2 1.5-.5v.5c0 2.2-1.8 4-4 4zm-7.6 15.4c.4.4 1 .3 1.3-.2l1-1.3 1.5 2.3c.2.3.5.5.9.4.3 0 .6-.3.8-.6l1.5-4.1 2.1 5.4c.1.5.5.7.9.7h.1c.4 0 .7-.3.9-.7l2-7.4.9 2c.2.5.8.7 1.3.5.5-.2.7-.9.4-1.4l-2-4.4c-.2-.4-.6-.6-1-.6s-.7.3-.8.7l-2 7.2-2-5.1c-.2-.4-.5-.6-.9-.6s-.7.3-.9.7l-1.7 4.7-1.3-1.8c-.2-.3-.4-.4-.7-.4s-.6.1-.8.4l-1.7 2.2c-.3.4-.3 1.1.2 1.4zm12.9 60.1v-.3c0-2.4-1.9-4.3-4.2-4.3-1.7 0-3.1 1-3.8 2.4-.2-.1-.6-.3-1.1-.3-1.1 0-1.9.9-1.9 2 0 .2 0 .4.1.6-.8.5-1.4 1.4-1.4 2.5 0 1.6 1.2 2.9 2.8 2.9h8.5c1.5 0 2.8-1.3 2.8-2.8-.1-1.2-.8-2.2-1.8-2.7zm-5.3-101.5c-4.4 0-8 3.6-8 8 0 1.2.3 2.4.8 3.4.1.4.5.6.9.6h12.6c.4 0 .7-.2.9-.6.5-1.1.8-2.2.8-3.4 0-4.4-3.6-8-8-8zm4.3 4.4l-2.8 3.4c.1.5-.1.9-.4 1.3-.6.6-1.5.6-2.1 0s-.6-1.5 0-2.1c.4-.3.8-.5 1.3-.4l3.3-2.8c.2-.2.5-.2.7 0 .1.1.1.4 0 .6zm-10.3 42.6v14c0 .5.4 1 1 1h10c.6 0 1-.4 1-1v-11l-4-4h-7c-.6 0-1 .4-1 1zm10 13h-8v-12h5v3h3v9zm-6-10h2v2h-2v-2zm0 3h4v1h-4v-1zm0 2h4v1h-4v-1zm0 2h4v1h-4v-1zM10.5 78c-.4 1.2-1.3 2-2.5 2s-2.1-.8-2.5-2h5zm5.3-1.9c-5.3-3.6-1.3-12.1-7.8-12.1s-2.5 8.5-7.8 12.1c-.2.1-.2.3-.2.4v.2c.1.2.3.3.5.3h15c.2 0 .4-.1.5-.3v-.2c0-.1 0-.3-.2-.4zM10 82v1c0 1.1-.9 2-2 2s-2-.9-2-2v-1c0-1.1.9-2 2-2s2 .9 2 2zm.9 5.1s-1.2-1.1-2.9-1.1-2.8 1.1-2.9 1.1l-.1.4v4c0 .2.1.4.3.4l.7.4.5 3.2c0 .3.3.5.5.5h2c.2 0 .5-.2.5-.4l.5-3.2.8-.4c.2-.1.3-.3.3-.4v-4c-.1-.2-.2-.4-.2-.5zm4.6-3.6v.8c0 .8-.7 1.5-1.5 1.5s-1.5-.7-1.5-1.5v-.8c0-.8.7-1.5 1.5-1.5s1.5.7 1.5 1.5zm-1.5 3c-1.9 0-2 .8-2 1v3c0 .2.1.3.2.4l.6.4.2 2.3c0 .3.2.5.5.5h1c.3 0 .5-.2.5-.5l.2-2.3.6-.4c.1-.1.2-.2.2-.4v-3c0-.2-.1-1-2-1zm-10.5-3v.8c0 .8-.7 1.5-1.5 1.5s-1.5-.7-1.5-1.5v-.8c0-.8.7-1.5 1.5-1.5s1.5.7 1.5 1.5zm-1.5 3c-1.9 0-2 .8-2 1v3c0 .2.1.3.2.4l.6.4.2 2.2c0 .3.2.5.5.5h1c.3 0 .5-.2.5-.5l.2-2.3.6-.4c.1 0 .2-.1.2-.3v-3c0-.2-.1-1-2-1z"/></svg>